<svg xmlns="http://www.w3.org/2000/svg" xmlns:xlink="http://www.w3.org/1999/xlink" width="500" zoomAndPan="magnify" viewBox="0 0 375 374.999991" height="500" preserveAspectRatio="xMidYMid meet" version="1.0"><path fill="#76ce8f" d="M 315.503906 117.941406 C 310.101562 109.804688 304.066406 102.339844 297.519531 95.546875 C 284.863281 117.316406 269.746094 148.832031 278.78125 162.582031 C 293.269531 184.628906 330.519531 213.613281 311.894531 238.457031 C 300.550781 253.585938 306.09375 274.863281 320.113281 285.441406 C 349.734375 234.984375 350.054688 169.960938 315.503906 117.941406 " fill-opacity="1" fill-rule="nonzero"/><path stroke-linecap="round" transform="matrix(0.0239691, 0, 0, -0.0239786, -40.651706, 408.395469)" fill="none" stroke-linejoin="round" d="M 14858.611224 12112.707721 C 14633.060576 12452.039683 14381.434709 12763.351916 14108.296787 13046.644418 C 13580.273595 12138.772586 12949.416256 10824.451766 13326.529116 10251.18764 C 13930.822325 9331.749524 15485.068369 8122.991407 14708.026832 7086.913021 C 14234.7616 6455.980381 14466.016202 5568.634631 15050.915967 5127.48679 C 16286.718394 7231.735927 16300.081944 9943.459326 14858.611224 12112.707721 Z M 14858.611224 12112.707721 " stroke="#131b2b" stroke-width="308.608" stroke-opacity="1" stroke-miterlimit="10"/><path fill="#76ce8f" d="M 147.519531 298.488281 C 155.761719 292.441406 179.226562 274.414062 163.351562 263.082031 C 160.441406 261.007812 156.589844 260.613281 153.066406 261.234375 C 145.46875 262.574219 139.980469 268.6875 132.679688 270.125 C 131.777344 265.265625 133.523438 259.722656 132.769531 254.464844 C 131.515625 245.734375 128.402344 237.105469 122.476562 230.4375 C 114.664062 221.636719 101.347656 217.179688 90.597656 221.953125 C 92.824219 188.453125 129.835938 185.9375 142.484375 159.164062 C 153.152344 136.589844 141.996094 97.230469 125.527344 79.699219 C 120.820312 74.691406 115.738281 70.035156 110.453125 65.605469 C 105.765625 68.082031 101.152344 70.808594 96.640625 73.804688 C 24.023438 122.078125 4.269531 220.105469 52.523438 292.753906 C 67.304688 315.011719 86.761719 332.296875 108.71875 344.191406 C 109.976562 343.371094 111.222656 342.527344 112.4375 341.632812 C 128.109375 330.089844 132.359375 309.617188 147.519531 298.488281 " fill-opacity="1" fill-rule="nonzero"/><path stroke-linecap="round" transform="matrix(0.0211816, 0, 0, -0.02119, -40.651706, 408.395469)" fill="none" stroke-linejoin="round" d="M 8883.704666 5186.739876 C 9272.824494 5472.103993 10380.617292 6322.850377 9631.146686 6857.631582 C 9493.756036 6955.51811 9311.920894 6974.136829 9145.576778 6944.826173 C 8786.885752 6881.596269 8527.779895 6593.098308 8183.10456 6525.259809 C 8140.504237 6754.583428 8222.938627 7016.167203 8187.34615 7264.293884 C 8128.1483 7676.302154 7981.167967 8083.517487 7701.407408 8398.19226 C 7332.573449 8813.518718 6703.895964 9023.854931 6196.380436 8798.586874 C 6301.498114 10379.518832 8048.848998 10498.236204 8645.991179 11761.728233 C 9149.633951 12827.050737 8622.939057 14684.498313 7845.43707 15511.833041 C 7623.214609 15748.161722 7383.288118 15967.899466 7133.771944 16176.945273 C 6912.471568 16060.071339 6694.675115 15931.399405 6481.673503 15790.007752 C 3053.361847 13511.88775 2120.76518 8885.781466 4398.868133 5457.356494 C 5096.701985 4406.965834 6015.282961 3591.244762 7051.890805 3029.918058 C 7111.273073 3068.630244 7170.102089 3108.448493 7227.45577 3150.663211 C 7967.336693 3695.398978 8167.982367 4661.544546 8883.704666 5186.739876 Z M 8883.704666 5186.739876 " stroke="#131b2b" stroke-width="349.23099" stroke-opacity="1" stroke-miterlimit="10"/><path fill="#91d6d8" d="M 311.894531 238.457031 C 330.519531 213.613281 293.265625 184.628906 278.78125 162.582031 C 269.746094 148.832031 284.867188 117.316406 297.519531 95.546875 C 249.246094 45.492188 172.792969 32.667969 110.453125 65.605469 C 115.738281 70.039062 120.820312 74.691406 125.527344 79.703125 C 141.996094 97.230469 153.152344 136.589844 142.484375 159.164062 C 129.835938 185.9375 92.824219 188.453125 90.597656 221.957031 C 101.347656 217.179688 114.664062 221.636719 122.476562 230.4375 C 128.402344 237.105469 131.515625 245.734375 132.769531 254.464844 C 133.523438 259.722656 131.777344 265.265625 132.679688 270.125 C 139.980469 268.6875 145.46875 262.574219 153.066406 261.234375 C 156.589844 260.613281 160.441406 261.007812 163.351562 263.082031 C 179.226562 274.414062 155.761719 292.441406 147.519531 298.488281 C 132.359375 309.617188 128.109375 330.089844 112.4375 341.632812 C 111.222656 342.527344 109.976562 343.371094 108.71875 344.191406 C 158.4375 371.121094 221.011719 370.378906 271.386719 336.894531 C 292.007812 323.183594 308.367188 305.457031 320.113281 285.441406 C 306.09375 274.863281 300.550781 253.585938 311.894531 238.457031 " fill-opacity="1" fill-rule="nonzero"/><path stroke-linecap="round" transform="matrix(0.0230414, 0, 0, -0.0230505, -40.651706, 408.395469)" fill="none" stroke-linejoin="round" d="M 15300.411243 7372.435148 C 16108.740155 8450.230955 14491.912798 9707.659395 13863.28788 10663.948976 C 13471.160201 11260.464894 14127.418846 12627.706492 14676.533223 13572.133541 C 12581.455894 15743.654839 9263.374209 16300.007612 6557.981427 14871.080845 C 6787.188786 14678.738354 7007.919542 14476.905838 7212.036155 14259.652029 C 7926.783365 13499.094234 8410.966958 11791.567419 7948.144405 10812.230632 C 7399.199561 9650.888704 5792.71366 9541.753405 5696.249912 8088.25425 C 6162.80217 8295.509638 6740.736999 8102.150359 7079.80114 7720.346279 C 7336.981291 7431.069952 7471.928819 7056.72232 7526.518146 6677.968605 C 7559.237835 6449.699588 7483.457 6209.398573 7522.449376 5998.584425 C 7839.304816 6060.947453 8077.497375 6326.159786 8407.406785 6384.286195 C 8560.324712 6411.23109 8727.313802 6394.11515 8853.784726 6303.959903 C 9542.763061 5812.51213 8524.214381 5030.432312 8166.671244 4768.10088 C 7508.547746 4285.295808 7324.096854 3397.131057 6644.103718 2896.193258 C 6591.379245 2857.555295 6537.298514 2820.950909 6482.709187 2785.363311 C 8640.513382 1617.073329 11356.24762 1649.271631 13542.363671 3101.923463 C 14437.323471 3696.744734 15147.323783 4465.775767 15657.276251 5333.943678 C 15048.656118 5792.854219 14808.09011 6715.928709 15300.411243 7372.435148 Z M 15300.411243 7372.435148 " stroke="#131b2b" stroke-width="321.04001" stroke-opacity="1" stroke-miterlimit="10"/><path stroke-linecap="round" transform="matrix(0.0211816, 0, 0, -0.02119, -40.651706, 408.395469)" fill="none" stroke-linejoin="round" d="M 6519.11015 14495.177286 C 6519.11015 14495.177286 4929.989035 13550.78428 4701.865231 12052.622663 " stroke="#131b2b" stroke-width="349.23099" stroke-opacity="1" stroke-miterlimit="10"/><path stroke-linecap="round" transform="matrix(0.0211816, 0, 0, -0.02119, -40.651706, 408.395469)" fill="none" stroke-linejoin="round" d="M 4441.468455 11157.080749 C 4441.468455 11157.080749 4294.856956 10798.716509 4294.856956 10570.86764 " stroke="#131b2b" stroke-width="349.23099" stroke-opacity="1" stroke-miterlimit="10"/><path stroke-linecap="round" transform="matrix(0.0211816, 0, 0, -0.02119, -40.651706, 408.395469)" fill="none" stroke-linejoin="round" d="M 11172.13497 3029.918058 C 11172.13497 3029.918058 12518.194506 3215.920897 13473.658878 3975.785814 " stroke="#131b2b" stroke-width="349.23099" stroke-opacity="1" stroke-miterlimit="10"/><path stroke-linecap="round" transform="matrix(0.0211816, 0, 0, -0.02119, -40.651706, 408.395469)" fill="none" stroke-linejoin="round" d="M 14428.938834 4475.17302 C 14428.938834 4475.17302 14841.479618 4713.89817 15080.11519 4887.734321 " stroke="#131b2b" stroke-width="349.23099" stroke-opacity="1" stroke-miterlimit="10"/><path fill="#f25862" d="M 304.066406 63.320312 C 304.066406 96.246094 277.382812 156.597656 244.46875 156.597656 C 211.554688 156.597656 184.867188 96.246094 184.867188 63.320312 C 184.867188 30.390625 211.554688 3.695312 244.46875 3.695312 C 277.382812 3.695312 304.066406 30.390625 304.066406 63.320312 " fill-opacity="1" fill-rule="nonzero"/><path stroke-linecap="round" transform="matrix(0.0248185, 0, 0, -0.0248284, -40.651706, 408.395469)" fill="none" stroke-linejoin="round" d="M 13889.720187 13898.583806 C 13889.720187 12572.447917 12814.570848 10141.539668 11488.380198 10141.539668 C 10162.032155 10141.539668 9086.882816 12572.447917 9086.882816 13898.583806 C 9086.882816 15224.877026 10162.032155 16300.071316 11488.380198 16300.071316 C 12814.570848 16300.071316 13889.720187 15224.877026 13889.720187 13898.583806 Z M 13889.720187 13898.583806 " stroke="#131b2b" stroke-width="298.05701" stroke-opacity="1" stroke-miterlimit="10"/><path fill="#f0da98" d="M 263.148438 250.546875 L 225.789062 250.546875 C 215.972656 250.546875 207.945312 242.515625 207.945312 232.695312 L 207.945312 208.902344 C 207.945312 199.085938 215.972656 191.054688 225.789062 191.054688 L 263.148438 191.054688 C 272.960938 191.054688 280.992188 199.085938 280.992188 208.902344 L 280.992188 232.695312 C 280.992188 242.515625 272.960938 250.546875 263.148438 250.546875 " fill-opacity="1" fill-rule="nonzero"/><path stroke-linecap="round" transform="matrix(0.0211816, 0, 0, -0.02119, -40.651706, 408.395469)" fill="none" stroke-linejoin="round" d="M 14342.631688 7449.19066 L 12578.867692 7449.19066 C 12115.427822 7449.19066 11736.450928 7828.2014 11736.450928 8291.641575 L 11736.450928 9414.479327 C 11736.450928 9877.735158 12115.427822 10256.745898 12578.867692 10256.745898 L 14342.631688 10256.745898 C 14805.887141 10256.745898 15185.048452 9877.735158 15185.048452 9414.479327 L 15185.048452 8291.641575 C 15185.048452 7828.2014 14805.887141 7449.19066 14342.631688 7449.19066 Z M 14342.631688 7449.19066 " stroke="#131b2b" stroke-width="349.23099" stroke-opacity="1" stroke-miterlimit="10"/><path fill="#f0da98" d="M 280.628906 205.707031 L 208.308594 205.707031 C 203.914062 205.707031 200.316406 202.109375 200.316406 197.710938 C 200.316406 193.3125 203.914062 189.710938 208.308594 189.710938 L 280.628906 189.710938 C 285.023438 189.710938 288.621094 193.3125 288.621094 197.710938 C 288.621094 202.109375 285.023438 205.707031 280.628906 205.707031 " fill-opacity="1" fill-rule="nonzero"/><path stroke-linecap="round" transform="matrix(0.0211816, 0, 0, -0.02119, -40.651706, 408.395469)" fill="none" stroke-linejoin="round" d="M 15167.897673 9565.27251 L 11753.601707 9565.27251 C 11546.132605 9565.27251 11376.284566 9735.0531 11376.284566 9942.624157 C 11376.284566 10150.195214 11546.132605 10320.160147 11753.601707 10320.160147 L 15167.897673 10320.160147 C 15375.366775 10320.160147 15545.214813 10150.195214 15545.214813 9942.624157 C 15545.214813 9735.0531 15375.366775 9565.27251 15167.897673 9565.27251 Z M 15167.897673 9565.27251 " stroke="#131b2b" stroke-width="349.23099" stroke-opacity="1" stroke-miterlimit="10"/><path stroke-linecap="round" transform="matrix(0.0211816, 0, 0, -0.02119, -40.651706, 408.395469)" fill="none" stroke-linejoin="round" d="M 12276.977096 10320.160147 C 12276.977096 10320.160147 10768.446201 14162.805514 10733.03814 15490.63351 " stroke="#131b2b" stroke-width="349.23099" stroke-opacity="1" stroke-miterlimit="10"/><path stroke-linecap="round" transform="matrix(0.0211816, 0, 0, -0.02119, -40.651706, 408.395469)" fill="none" stroke-linejoin="round" d="M 16188.461239 15490.63351 C 16188.461239 15490.63351 15262.134749 11235.058154 14901.783971 10320.160147 " stroke="#131b2b" stroke-width="349.23099" stroke-opacity="1" stroke-miterlimit="10"/><path stroke-linecap="round" transform="matrix(0.0211816, 0, 0, -0.02119, -40.651706, 408.395469)" fill="none" stroke-linejoin="round" d="M 13460.74969 15490.63351 L 13460.74969 10320.160147 " stroke="#131b2b" stroke-width="349.23099" stroke-opacity="1" stroke-miterlimit="10"/><path stroke-linecap="round" transform="matrix(0.0215714, 0, 0, -0.0215799, -40.651706, 408.395469)" fill="none" stroke-linejoin="round" d="M 10159.563734 15270.308967 L 16299.975264 15270.308967 " stroke="#131b2b" stroke-width="342.91101" stroke-opacity="1" stroke-miterlimit="10"/><path stroke-linecap="round" transform="matrix(0.0211816, 0, 0, -0.02119, -40.651706, 408.395469)" fill="none" stroke-linejoin="round" d="M 12577.023522 8619.957785 L 13122.344532 8619.957785 " stroke="#131b2b" stroke-width="349.23099" stroke-opacity="1" stroke-miterlimit="10"/><path stroke-linecap="round" transform="matrix(0.0211816, 0, 0, -0.02119, -40.651706, 408.395469)" fill="none" stroke-linejoin="round" d="M 13810.03545 8619.957785 L 14165.591387 8619.957785 " stroke="#131b2b" stroke-width="349.23099" stroke-opacity="1" stroke-miterlimit="10"/></svg>