<svg xmlns="http://www.w3.org/2000/svg" xmlns:xlink="http://www.w3.org/1999/xlink" width="500" zoomAndPan="magnify" viewBox="0 0 375 374.999991" height="500" preserveAspectRatio="xMidYMid meet" version="1.0"><defs><clipPath id="653d9a14c5"><path d="M 0 13.976562 L 100 13.976562 L 100 361.226562 L 0 361.226562 Z M 0 13.976562 " clip-rule="nonzero"/></clipPath><clipPath id="7130443f82"><path d="M 98 13.976562 L 187 13.976562 L 187 358 L 98 358 Z M 98 13.976562 " clip-rule="nonzero"/></clipPath><clipPath id="fcc8647fae"><path d="M 185 13.976562 L 276 13.976562 L 276 358 L 185 358 Z M 185 13.976562 " clip-rule="nonzero"/></clipPath><clipPath id="fc7b4d1374"><path d="M 275 13.976562 L 375 13.976562 L 375 361.226562 L 275 361.226562 Z M 275 13.976562 " clip-rule="nonzero"/></clipPath></defs><g clip-path="url(#653d9a14c5)"><path fill="#d3d2d2" d="M 99.015625 332.324219 L 0.230469 361.226562 L 0.230469 42.882812 L 99.015625 13.976562 L 99.015625 332.324219 " fill-opacity="1" fill-rule="nonzero"/></g><g clip-path="url(#7130443f82)"><path fill="#a7a5a5" d="M 98.15625 332.324219 L 186.636719 357.796875 L 186.636719 39.453125 L 98.15625 13.976562 L 98.15625 332.324219 " fill-opacity="1" fill-rule="nonzero"/></g><g clip-path="url(#fcc8647fae)"><path fill="#d3d2d2" d="M 275.984375 332.324219 L 185.777344 357.796875 L 185.777344 39.453125 L 275.984375 13.976562 L 275.984375 332.324219 " fill-opacity="1" fill-rule="nonzero"/></g><g clip-path="url(#fc7b4d1374)"><path fill="#a7a5a5" d="M 275.121094 332.324219 L 374.769531 361.226562 L 374.769531 42.882812 L 275.121094 13.976562 L 275.121094 332.324219 " fill-opacity="1" fill-rule="nonzero"/></g><path fill="#ffffff" d="M 99.015625 324.269531 L 10.554688 348.332031 L 10.554688 47.507812 L 99.015625 23.421875 L 99.015625 324.269531 " fill-opacity="1" fill-rule="nonzero"/><path fill="#d3d2d2" d="M 98.15625 324.269531 L 186.636719 348.332031 L 186.636719 47.507812 L 98.15625 23.421875 L 98.15625 324.269531 " fill-opacity="1" fill-rule="nonzero"/><path fill="#6e9d2b" d="M 59.4375 92.226562 C 63.453125 71.648438 59.164062 52.757812 49.054688 37.023438 L 10.554688 47.507812 L 10.554688 165.183594 C 34.820312 147.527344 53.601562 122.070312 59.4375 92.226562 " fill-opacity="1" fill-rule="nonzero"/><path fill="#6e9d2b" d="M 97.488281 239.886719 C 93.394531 236.847656 88.363281 234.929688 83.425781 233.871094 C 73.320312 231.753906 62.882812 233.671875 53.1875 236.75 C 37.992188 241.570312 24.046875 249.605469 10.554688 258.167969 L 10.554688 348.332031 L 99.015625 324.269531 L 99.015625 241.21875 C 98.546875 240.746094 98.039062 240.296875 97.488281 239.886719 " fill-opacity="1" fill-rule="nonzero"/><path fill="#46551e" d="M 164.429688 311.414062 C 165.210938 297.421875 165.742188 278.53125 156.164062 267.046875 C 149.917969 259.558594 141.535156 261.636719 132.839844 262.246094 C 121.910156 262.988281 111.84375 260.972656 104.851562 251.976562 C 102.425781 248.839844 100.738281 245.117188 98.15625 242.160156 L 98.15625 324.269531 L 160.472656 341.21875 C 162.550781 331.363281 163.882812 321.367188 164.429688 311.414062 " fill-opacity="1" fill-rule="nonzero"/><path fill="#99def8" d="M 103.855469 36.75 C 99.015625 54.71875 103.226562 68.671875 116.9375 80.742188 C 126.199219 88.894531 136.226562 96.105469 142.613281 106.960938 C 147.878906 115.957031 148.273438 125.460938 149.113281 135.59375 C 149.507812 140.316406 149.289062 151.074219 154.851562 152.699219 C 162.136719 154.835938 170.148438 146.78125 173.242188 141.257812 C 183.503906 123.011719 182.898438 98.144531 181.976562 77.921875 C 181.507812 67.320312 180.742188 56.226562 178.921875 45.410156 L 107.59375 25.988281 C 106.125 29.476562 104.851562 33.0625 103.855469 36.75 " fill-opacity="1" fill-rule="nonzero"/><path fill="#ffffff" d="M 275.984375 324.269531 L 185.777344 348.332031 L 185.777344 47.507812 L 275.984375 23.421875 L 275.984375 324.269531 " fill-opacity="1" fill-rule="nonzero"/><path fill="#d3d2d2" d="M 275.121094 324.269531 L 365.308594 348.332031 L 365.308594 47.507812 L 275.121094 23.421875 L 275.121094 324.269531 " fill-opacity="1" fill-rule="nonzero"/><path fill="#6e9d2b" d="M 217.484375 87.855469 C 224.730469 111.84375 254.460938 117.996094 262.3125 141.667969 C 264.449219 148.117188 264.332031 154.347656 262.84375 160.910156 C 261.550781 166.59375 258.632812 172.042969 261.824219 177.550781 C 264.683594 182.507812 270.128906 185.484375 275.984375 187.328125 L 275.984375 23.421875 L 233.074219 34.867188 C 221.144531 50.976562 211.921875 69.515625 217.484375 87.855469 " fill-opacity="1" fill-rule="nonzero"/><path fill="#99def8" d="M 240.085938 271.320312 C 219.855469 286.996094 217.699219 313.292969 220.675781 339.023438 L 275.984375 324.269531 L 275.984375 257.855469 C 263.078125 258.679688 250.269531 263.441406 240.085938 271.320312 " fill-opacity="1" fill-rule="nonzero"/><path fill="#46551e" d="M 287.164062 189.992188 C 298.425781 191.421875 310.160156 191.089844 320.949219 187.484375 C 333.230469 183.371094 344.234375 176.941406 357.335938 175.433594 C 360.058594 175.121094 362.703125 175.039062 365.308594 175.121094 L 365.308594 47.507812 L 275.121094 23.421875 L 275.121094 187.601562 C 279.234375 188.816406 283.484375 189.523438 287.164062 189.992188 " fill-opacity="1" fill-rule="nonzero"/><path fill="#6dd0f5" d="M 334.421875 309.355469 C 330.546875 291.679688 322.222656 274.53125 305.890625 264.949219 C 296.527344 259.480469 285.816406 257.269531 275.121094 257.796875 L 275.121094 324.269531 L 337.597656 340.945312 C 337.578125 330.324219 336.714844 319.722656 334.421875 309.355469 " fill-opacity="1" fill-rule="nonzero"/><path fill="#f8a227" d="M 329.527344 227.363281 C 321.28125 227.714844 313.332031 229.65625 305.632812 231.519531 C 299.171875 233.085938 293.082031 234.574219 286.832031 235.203125 C 263.15625 237.574219 245.546875 225.089844 240.378906 211.550781 C 239.515625 209.335938 238.910156 206.964844 238.261719 204.457031 C 237.109375 200.105469 235.933594 195.597656 233.40625 191.421875 C 228.078125 182.566406 214.449219 173.550781 193.589844 177.3125 C 185.972656 178.6875 178.785156 181.351562 171.832031 183.9375 C 166.347656 185.996094 161.160156 187.914062 155.792969 189.269531 C 136.757812 194.03125 116.9375 190.445312 102.777344 179.664062 C 87.832031 168.28125 80.214844 148.488281 84.269531 131.535156 C 85.230469 127.597656 86.71875 123.816406 88.304688 119.796875 C 89.242188 117.386719 90.242188 114.898438 91.085938 112.351562 C 99.605469 86.5625 88.011719 53.191406 71.8125 31.378906 C 68.679688 32.457031 65.507812 33.398438 62.296875 34.277344 C 78.648438 54.71875 90.046875 86.523438 82.3125 109.371094 C 81.507812 111.703125 80.625 113.976562 79.667969 116.386719 C 78.042969 120.542969 76.355469 124.816406 75.261719 129.382812 C 70.382812 149.78125 79.375 173.511719 97.175781 187.035156 C 113.546875 199.515625 136.285156 203.691406 158.042969 198.261719 C 163.921875 196.792969 169.578125 194.675781 175.0625 192.636719 C 181.9375 190.089844 188.421875 187.660156 195.234375 186.445312 C 206.183594 184.46875 219.773438 186.71875 225.472656 196.183594 C 227.316406 199.242188 228.253906 202.90625 229.273438 206.808594 C 229.980469 209.453125 230.683594 212.175781 231.722656 214.859375 C 240.222656 237.101562 266.386719 246.566406 287.753906 244.433594 C 294.648438 243.746094 301.34375 242.101562 307.828125 240.53125 C 315.40625 238.691406 322.574219 236.945312 329.917969 236.613281 L 330.429688 236.613281 C 341.296875 236.613281 360.136719 251.410156 365.367188 263.34375 L 365.367188 246.941406 C 355.066406 235.613281 339.59375 226.914062 329.527344 227.363281 " fill-opacity="1" fill-rule="nonzero"/><path fill="#f8a227" d="M 203.246094 291.640625 C 205.695312 288.113281 208.21875 284.449219 209.808594 280.078125 C 214.15625 268.027344 209.023438 253.347656 198.132812 246.648438 C 188.363281 240.628906 177.296875 241.53125 166.601562 242.414062 C 159.710938 242.980469 153.226562 243.53125 147.195312 242.316406 C 139.558594 240.765625 134.054688 234.398438 128.238281 227.65625 C 122.382812 220.859375 116.308594 213.824219 107.28125 210.492188 C 78.140625 199.734375 39.910156 207.179688 10.277344 220.425781 L 10.277344 230.636719 C 39.207031 216.898438 77.21875 209.277344 104.089844 219.191406 C 110.867188 221.679688 115.898438 227.519531 121.226562 233.710938 C 127.804688 241.355469 134.601562 249.253906 145.375 251.410156 C 152.679688 252.878906 160.140625 252.25 167.347656 251.664062 C 176.984375 250.878906 186.089844 250.113281 193.277344 254.542969 C 200.445312 258.972656 203.949219 269.007812 201.089844 276.921875 C 199.917969 280.175781 197.839844 283.175781 195.628906 286.367188 C 194.179688 288.464844 192.671875 290.621094 191.359375 292.972656 C 181.859375 309.941406 185.464844 330.226562 194.140625 345.785156 C 197.195312 344.863281 200.289062 344.042969 203.421875 343.296875 C 195.234375 329.933594 191.320312 312.058594 199.445312 297.5 C 200.542969 295.539062 201.855469 293.640625 203.246094 291.640625 " fill-opacity="1" fill-rule="nonzero"/><path fill="#f25946" d="M 339.886719 143.058594 C 339.886719 169.964844 311.214844 237.378906 291.179688 237.378906 C 271.929688 237.378906 242.472656 169.964844 242.472656 143.058594 C 242.472656 116.132812 264.273438 94.324219 291.179688 94.324219 C 318.070312 94.324219 339.886719 116.132812 339.886719 143.058594 " fill-opacity="1" fill-rule="nonzero"/><path fill="#ffffff" d="M 320.246094 147 C 320.246094 163.046875 307.21875 176.058594 291.179688 176.058594 C 275.121094 176.058594 262.117188 163.046875 262.117188 147 C 262.117188 130.929688 275.121094 117.898438 291.179688 117.898438 C 307.21875 117.898438 320.246094 130.929688 320.246094 147 " fill-opacity="1" fill-rule="nonzero"/></svg>